<mxfile host="65bd71144e">
    <diagram id="tyZdko0Frrr-hSUvyJk_" name="Page-1">
        <mxGraphModel dx="1490" dy="1162" grid="1" gridSize="10" guides="1" tooltips="1" connect="1" arrows="1" fold="1" page="1" pageScale="1" pageWidth="1600" pageHeight="900" background="#ffffff" math="0" shadow="0">
            <root>
                <mxCell id="0"/>
                <mxCell id="1" parent="0"/>
                <mxCell id="2" value="VPC" style="points=[[0,0],[0.25,0],[0.5,0],[0.75,0],[1,0],[1,0.25],[1,0.5],[1,0.75],[1,1],[0.75,1],[0.5,1],[0.25,1],[0,1],[0,0.75],[0,0.5],[0,0.25]];outlineConnect=0;gradientColor=none;html=1;whiteSpace=wrap;fontSize=12;fontStyle=0;container=1;pointerEvents=0;collapsible=0;recursiveResize=0;shape=mxgraph.aws4.group;grIcon=mxgraph.aws4.group_vpc;strokeColor=#248814;fillColor=none;verticalAlign=top;align=left;spacingLeft=30;fontColor=#AAB7B8;dashed=0;" parent="1" vertex="1">
                    <mxGeometry x="280" y="200" width="1080" height="560" as="geometry"/>
                </mxCell>
                <mxCell id="7" value="Public subnet" style="points=[[0,0],[0.25,0],[0.5,0],[0.75,0],[1,0],[1,0.25],[1,0.5],[1,0.75],[1,1],[0.75,1],[0.5,1],[0.25,1],[0,1],[0,0.75],[0,0.5],[0,0.25]];outlineConnect=0;gradientColor=none;html=1;whiteSpace=wrap;fontSize=12;fontStyle=0;container=1;pointerEvents=0;collapsible=0;recursiveResize=0;shape=mxgraph.aws4.group;grIcon=mxgraph.aws4.group_security_group;grStroke=0;strokeColor=#248814;fillColor=#E9F3E6;verticalAlign=top;align=left;spacingLeft=30;fontColor=#248814;dashed=0;" parent="2" vertex="1">
                    <mxGeometry x="80" y="320" width="280" height="200" as="geometry"/>
                </mxCell>
                <mxCell id="8" value="" style="sketch=0;outlineConnect=0;fontColor=#232F3E;gradientColor=none;fillColor=#4D27AA;strokeColor=none;dashed=0;verticalLabelPosition=bottom;verticalAlign=top;align=center;html=1;fontSize=12;fontStyle=0;aspect=fixed;pointerEvents=1;shape=mxgraph.aws4.nat_gateway;" parent="7" vertex="1">
                    <mxGeometry x="210" y="90" width="39" height="39" as="geometry"/>
                </mxCell>
                <mxCell id="9" value="&lt;font color=&quot;#000000&quot;&gt;NAT Gateway&lt;/font&gt;" style="text;html=1;align=center;verticalAlign=middle;resizable=0;points=[];autosize=1;strokeColor=none;fillColor=none;" parent="7" vertex="1">
                    <mxGeometry x="179.5" y="60" width="100" height="30" as="geometry"/>
                </mxCell>
                <mxCell id="3" value="Public subnet" style="points=[[0,0],[0.25,0],[0.5,0],[0.75,0],[1,0],[1,0.25],[1,0.5],[1,0.75],[1,1],[0.75,1],[0.5,1],[0.25,1],[0,1],[0,0.75],[0,0.5],[0,0.25]];outlineConnect=0;gradientColor=none;html=1;whiteSpace=wrap;fontSize=12;fontStyle=0;container=1;pointerEvents=0;collapsible=0;recursiveResize=0;shape=mxgraph.aws4.group;grIcon=mxgraph.aws4.group_security_group;grStroke=0;strokeColor=#248814;fillColor=#E9F3E6;verticalAlign=top;align=left;spacingLeft=30;fontColor=#248814;dashed=0;" parent="2" vertex="1">
                    <mxGeometry x="80" y="40" width="280" height="200" as="geometry"/>
                </mxCell>
                <mxCell id="5" value="" style="sketch=0;outlineConnect=0;fontColor=#232F3E;gradientColor=none;fillColor=#4D27AA;strokeColor=none;dashed=0;verticalLabelPosition=bottom;verticalAlign=top;align=center;html=1;fontSize=12;fontStyle=0;aspect=fixed;pointerEvents=1;shape=mxgraph.aws4.nat_gateway;" parent="3" vertex="1">
                    <mxGeometry x="210" y="90" width="39" height="39" as="geometry"/>
                </mxCell>
                <mxCell id="6" value="&lt;font color=&quot;#000000&quot;&gt;NAT Gateway&lt;/font&gt;" style="text;html=1;align=center;verticalAlign=middle;resizable=0;points=[];autosize=1;strokeColor=none;fillColor=none;" parent="3" vertex="1">
                    <mxGeometry x="180" y="60" width="100" height="30" as="geometry"/>
                </mxCell>
                <mxCell id="13" value="" style="rounded=0;whiteSpace=wrap;html=1;shadow=0;fontColor=#000000;dashed=1;fillColor=none;strokeWidth=2;strokeColor=#FF9933;" parent="3" vertex="1">
                    <mxGeometry x="40" y="55" width="80" height="360" as="geometry"/>
                </mxCell>
                <mxCell id="10" value="" style="sketch=0;outlineConnect=0;fontColor=#232F3E;gradientColor=none;fillColor=#4D27AA;strokeColor=none;dashed=0;verticalLabelPosition=bottom;verticalAlign=top;align=center;html=1;fontSize=12;fontStyle=0;aspect=fixed;pointerEvents=1;shape=mxgraph.aws4.application_load_balancer;" parent="2" vertex="1">
                    <mxGeometry x="140" y="260" width="40" height="40" as="geometry"/>
                </mxCell>
                <mxCell id="19" value="Private subnet" style="points=[[0,0],[0.25,0],[0.5,0],[0.75,0],[1,0],[1,0.25],[1,0.5],[1,0.75],[1,1],[0.75,1],[0.5,1],[0.25,1],[0,1],[0,0.75],[0,0.5],[0,0.25]];outlineConnect=0;gradientColor=none;html=1;whiteSpace=wrap;fontSize=12;fontStyle=0;container=1;pointerEvents=0;collapsible=0;recursiveResize=0;shape=mxgraph.aws4.group;grIcon=mxgraph.aws4.group_security_group;grStroke=0;strokeColor=#147EBA;fillColor=#E6F2F8;verticalAlign=top;align=left;spacingLeft=30;fontColor=#147EBA;dashed=0;shadow=0;strokeWidth=2;" parent="2" vertex="1">
                    <mxGeometry x="400" y="40" width="640" height="200" as="geometry"/>
                </mxCell>
                <mxCell id="25" value="&lt;font color=&quot;#000000&quot;&gt;Amazon EFS&lt;/font&gt;" style="text;html=1;align=center;verticalAlign=middle;resizable=0;points=[];autosize=1;strokeColor=none;fillColor=none;" parent="19" vertex="1">
                    <mxGeometry x="527" y="120" width="90" height="30" as="geometry"/>
                </mxCell>
                <mxCell id="26" value="" style="sketch=0;points=[[0,0,0],[0.25,0,0],[0.5,0,0],[0.75,0,0],[1,0,0],[0,1,0],[0.25,1,0],[0.5,1,0],[0.75,1,0],[1,1,0],[0,0.25,0],[0,0.5,0],[0,0.75,0],[1,0.25,0],[1,0.5,0],[1,0.75,0]];outlineConnect=0;fontColor=#232F3E;gradientColor=#60A337;gradientDirection=north;fillColor=#277116;strokeColor=#ffffff;dashed=0;verticalLabelPosition=bottom;verticalAlign=top;align=center;html=1;fontSize=12;fontStyle=0;aspect=fixed;shape=mxgraph.aws4.resourceIcon;resIcon=mxgraph.aws4.elastic_file_system;shadow=0;strokeWidth=2;" parent="19" vertex="1">
                    <mxGeometry x="552" y="80" width="40" height="40" as="geometry"/>
                </mxCell>
                <mxCell id="41" value="&lt;font color=&quot;#000000&quot;&gt;ECS Task&lt;/font&gt;" style="text;html=1;align=center;verticalAlign=middle;resizable=0;points=[];autosize=1;strokeColor=none;fillColor=none;" parent="19" vertex="1">
                    <mxGeometry x="260" y="119" width="80" height="30" as="geometry"/>
                </mxCell>
                <mxCell id="40" value="" style="sketch=0;outlineConnect=0;fontColor=#232F3E;gradientColor=none;fillColor=#D45B07;strokeColor=none;dashed=0;verticalLabelPosition=bottom;verticalAlign=top;align=center;html=1;fontSize=12;fontStyle=0;aspect=fixed;pointerEvents=1;shape=mxgraph.aws4.ecs_task;shadow=0;strokeWidth=2;" parent="19" vertex="1">
                    <mxGeometry x="284" y="81" width="30.06" height="39" as="geometry"/>
                </mxCell>
                <mxCell id="45" value="" style="sketch=0;points=[[0,0,0],[0.25,0,0],[0.5,0,0],[0.75,0,0],[1,0,0],[0,1,0],[0.25,1,0],[0.5,1,0],[0.75,1,0],[1,1,0],[0,0.25,0],[0,0.5,0],[0,0.75,0],[1,0.25,0],[1,0.5,0],[1,0.75,0]];outlineConnect=0;fontColor=#232F3E;gradientColor=#F78E04;gradientDirection=north;fillColor=#D05C17;strokeColor=#ffffff;dashed=0;verticalLabelPosition=bottom;verticalAlign=top;align=center;html=1;fontSize=12;fontStyle=0;aspect=fixed;shape=mxgraph.aws4.resourceIcon;resIcon=mxgraph.aws4.ec2;shadow=0;strokeWidth=2;" parent="19" vertex="1">
                    <mxGeometry x="41" y="77" width="38" height="38" as="geometry"/>
                </mxCell>
                <mxCell id="46" value="&lt;font color=&quot;#000000&quot;&gt;Bastion&lt;br&gt;&lt;/font&gt;" style="text;html=1;align=center;verticalAlign=middle;resizable=0;points=[];autosize=1;strokeColor=none;fillColor=none;" parent="19" vertex="1">
                    <mxGeometry x="29" y="113" width="60" height="30" as="geometry"/>
                </mxCell>
                <mxCell id="50" value="" style="endArrow=classic;html=1;fontColor=#000000;strokeColor=#999999;strokeWidth=1;edgeStyle=orthogonalEdgeStyle;" parent="19" source="40" target="26" edge="1">
                    <mxGeometry width="50" height="50" relative="1" as="geometry">
                        <mxPoint x="323.8765909090912" y="372.5" as="sourcePoint"/>
                        <mxPoint x="540" y="110" as="targetPoint"/>
                        <Array as="points"/>
                    </mxGeometry>
                </mxCell>
                <mxCell id="22" value="Private subnet" style="points=[[0,0],[0.25,0],[0.5,0],[0.75,0],[1,0],[1,0.25],[1,0.5],[1,0.75],[1,1],[0.75,1],[0.5,1],[0.25,1],[0,1],[0,0.75],[0,0.5],[0,0.25]];outlineConnect=0;gradientColor=none;html=1;whiteSpace=wrap;fontSize=12;fontStyle=0;container=1;pointerEvents=0;collapsible=0;recursiveResize=0;shape=mxgraph.aws4.group;grIcon=mxgraph.aws4.group_security_group;grStroke=0;strokeColor=#147EBA;fillColor=#E6F2F8;verticalAlign=top;align=left;spacingLeft=30;fontColor=#147EBA;dashed=0;shadow=0;strokeWidth=2;" parent="2" vertex="1">
                    <mxGeometry x="400" y="320" width="640" height="200" as="geometry"/>
                </mxCell>
                <mxCell id="24" value="" style="rounded=0;whiteSpace=wrap;html=1;shadow=0;fontColor=#000000;dashed=1;fillColor=none;strokeWidth=2;strokeColor=#FF9933;" parent="22" vertex="1">
                    <mxGeometry x="402" y="-220" width="100" height="360" as="geometry"/>
                </mxCell>
                <mxCell id="34" value="" style="sketch=0;points=[[0,0,0],[0.25,0,0],[0.5,0,0],[0.75,0,0],[1,0,0],[0,1,0],[0.25,1,0],[0.5,1,0],[0.75,1,0],[1,1,0],[0,0.25,0],[0,0.5,0],[0,0.75,0],[1,0.25,0],[1,0.5,0],[1,0.75,0]];outlineConnect=0;fontColor=#232F3E;gradientColor=#4D72F3;gradientDirection=north;fillColor=#3334B9;strokeColor=#ffffff;dashed=0;verticalLabelPosition=bottom;verticalAlign=top;align=center;html=1;fontSize=12;fontStyle=0;aspect=fixed;shape=mxgraph.aws4.resourceIcon;resIcon=mxgraph.aws4.aurora;shadow=0;strokeWidth=2;" parent="22" vertex="1">
                    <mxGeometry x="430" y="60" width="44" height="44" as="geometry"/>
                </mxCell>
                <mxCell id="36" value="&lt;font color=&quot;#000000&quot;&gt;Amazon Aurora&lt;/font&gt;" style="text;html=1;align=center;verticalAlign=middle;resizable=0;points=[];autosize=1;strokeColor=none;fillColor=none;" parent="22" vertex="1">
                    <mxGeometry x="397" y="104" width="110" height="30" as="geometry"/>
                </mxCell>
                <mxCell id="38" value="&lt;font color=&quot;#000000&quot;&gt;ECS Service&lt;br&gt;(Cluster)&lt;br&gt;&lt;/font&gt;" style="text;html=1;align=center;verticalAlign=middle;resizable=0;points=[];autosize=1;strokeColor=none;fillColor=none;" parent="22" vertex="1">
                    <mxGeometry x="130" y="-101" width="90" height="40" as="geometry"/>
                </mxCell>
                <mxCell id="43" value="&lt;font color=&quot;#000000&quot;&gt;ECS Task&lt;/font&gt;" style="text;html=1;align=center;verticalAlign=middle;resizable=0;points=[];autosize=1;strokeColor=none;fillColor=none;" parent="22" vertex="1">
                    <mxGeometry x="260" y="102" width="80" height="30" as="geometry"/>
                </mxCell>
                <mxCell id="44" value="" style="sketch=0;outlineConnect=0;fontColor=#232F3E;gradientColor=none;fillColor=#D45B07;strokeColor=none;dashed=0;verticalLabelPosition=bottom;verticalAlign=top;align=center;html=1;fontSize=12;fontStyle=0;aspect=fixed;pointerEvents=1;shape=mxgraph.aws4.ecs_task;shadow=0;strokeWidth=2;" parent="22" vertex="1">
                    <mxGeometry x="284" y="63" width="30.06" height="39" as="geometry"/>
                </mxCell>
                <mxCell id="48" value="" style="endArrow=classic;html=1;fontColor=#000000;entryX=0;entryY=0.5;entryDx=0;entryDy=0;entryPerimeter=0;strokeColor=#999999;strokeWidth=1;edgeStyle=orthogonalEdgeStyle;" parent="22" source="44" target="34" edge="1">
                    <mxGeometry width="50" height="50" relative="1" as="geometry">
                        <mxPoint x="70" y="-150" as="sourcePoint"/>
                        <mxPoint x="120" y="-200" as="targetPoint"/>
                    </mxGeometry>
                </mxCell>
                <mxCell id="39" value="" style="rounded=0;whiteSpace=wrap;html=1;shadow=0;fontColor=#000000;dashed=1;fillColor=none;strokeWidth=2;strokeColor=#FF9933;" parent="22" vertex="1">
                    <mxGeometry x="130" y="-220" width="250" height="360" as="geometry"/>
                </mxCell>
                <mxCell id="29" value="" style="rounded=0;whiteSpace=wrap;html=1;shadow=0;fontColor=#000000;dashed=1;fillColor=none;strokeWidth=2;strokeColor=#FF9933;" parent="22" vertex="1">
                    <mxGeometry x="520" y="-220" width="100" height="360" as="geometry"/>
                </mxCell>
                <mxCell id="16" value="&lt;font color=&quot;#000000&quot;&gt;Application Load Balancer&lt;/font&gt;" style="text;html=1;align=center;verticalAlign=middle;resizable=0;points=[];autosize=1;strokeColor=none;fillColor=none;" parent="2" vertex="1">
                    <mxGeometry x="80" y="235" width="160" height="30" as="geometry"/>
                </mxCell>
                <mxCell id="37" value="" style="sketch=0;outlineConnect=0;fontColor=#232F3E;gradientColor=none;fillColor=#D45B07;strokeColor=none;dashed=0;verticalLabelPosition=bottom;verticalAlign=top;align=center;html=1;fontSize=12;fontStyle=0;aspect=fixed;pointerEvents=1;shape=mxgraph.aws4.ecs_service;shadow=0;strokeWidth=2;" parent="2" vertex="1">
                    <mxGeometry x="560" y="260" width="32.5" height="40" as="geometry"/>
                </mxCell>
                <mxCell id="17" value="&lt;font color=&quot;#000000&quot;&gt;Internet Gateway&lt;/font&gt;" style="text;html=1;align=center;verticalAlign=middle;resizable=0;points=[];autosize=1;strokeColor=none;fillColor=none;" parent="2" vertex="1">
                    <mxGeometry x="-55" y="295" width="110" height="30" as="geometry"/>
                </mxCell>
                <mxCell id="15" value="" style="sketch=0;outlineConnect=0;fontColor=#232F3E;gradientColor=none;fillColor=#4D27AA;strokeColor=none;dashed=0;verticalLabelPosition=bottom;verticalAlign=top;align=center;html=1;fontSize=12;fontStyle=0;aspect=fixed;pointerEvents=1;shape=mxgraph.aws4.internet_gateway;shadow=0;strokeWidth=2;" parent="2" vertex="1">
                    <mxGeometry x="-20" y="260" width="40" height="40" as="geometry"/>
                </mxCell>
                <mxCell id="49" value="" style="endArrow=classic;html=1;fontColor=#000000;entryX=0;entryY=0.75;entryDx=0;entryDy=0;strokeColor=#999999;strokeWidth=1;edgeStyle=orthogonalEdgeStyle;entryPerimeter=0;" parent="2" source="44" target="26" edge="1">
                    <mxGeometry width="50" height="50" relative="1" as="geometry">
                        <mxPoint x="723.8765909090912" y="412.5" as="sourcePoint"/>
                        <mxPoint x="840" y="412" as="targetPoint"/>
                        <Array as="points">
                            <mxPoint x="770" y="390"/>
                            <mxPoint x="770" y="180"/>
                            <mxPoint x="880" y="180"/>
                            <mxPoint x="880" y="150"/>
                        </Array>
                    </mxGeometry>
                </mxCell>
                <mxCell id="51" value="" style="endArrow=classic;html=1;fontColor=#000000;strokeColor=#999999;strokeWidth=1;edgeStyle=orthogonalEdgeStyle;entryX=0;entryY=0.75;entryDx=0;entryDy=0;entryPerimeter=0;" parent="2" source="40" target="34" edge="1">
                    <mxGeometry width="50" height="50" relative="1" as="geometry">
                        <mxPoint x="723.8765909090912" y="150.5" as="sourcePoint"/>
                        <mxPoint x="962" y="150" as="targetPoint"/>
                        <Array as="points">
                            <mxPoint x="750" y="151"/>
                            <mxPoint x="750" y="413"/>
                        </Array>
                    </mxGeometry>
                </mxCell>
                <mxCell id="54" value="" style="endArrow=classic;html=1;fontColor=#000000;strokeColor=#999999;strokeWidth=1;edgeStyle=orthogonalEdgeStyle;" parent="2" source="10" target="37" edge="1">
                    <mxGeometry width="50" height="50" relative="1" as="geometry">
                        <mxPoint x="723.8765909090912" y="161" as="sourcePoint"/>
                        <mxPoint x="840" y="423" as="targetPoint"/>
                        <Array as="points">
                            <mxPoint x="430" y="280"/>
                            <mxPoint x="430" y="280"/>
                        </Array>
                    </mxGeometry>
                </mxCell>
                <mxCell id="55" value="" style="endArrow=classic;html=1;fontColor=#000000;strokeColor=#999999;strokeWidth=1;edgeStyle=orthogonalEdgeStyle;" parent="2" source="37" target="40" edge="1">
                    <mxGeometry width="50" height="50" relative="1" as="geometry">
                        <mxPoint x="723.8765909090912" y="150.5" as="sourcePoint"/>
                        <mxPoint x="962" y="150" as="targetPoint"/>
                        <Array as="points">
                            <mxPoint x="576" y="141"/>
                        </Array>
                    </mxGeometry>
                </mxCell>
                <mxCell id="57" value="" style="endArrow=classic;html=1;fontColor=#000000;strokeColor=#999999;strokeWidth=1;edgeStyle=orthogonalEdgeStyle;" parent="2" source="37" target="44" edge="1">
                    <mxGeometry width="50" height="50" relative="1" as="geometry">
                        <mxPoint x="586.3000000000002" y="270" as="sourcePoint"/>
                        <mxPoint x="694.1834090909092" y="151" as="targetPoint"/>
                        <Array as="points">
                            <mxPoint x="586" y="400"/>
                        </Array>
                    </mxGeometry>
                </mxCell>
                <mxCell id="59" value="" style="endArrow=classic;html=1;fontColor=#000000;strokeColor=#999999;strokeWidth=1;edgeStyle=orthogonalEdgeStyle;" parent="2" source="37" target="5" edge="1">
                    <mxGeometry width="50" height="50" relative="1" as="geometry">
                        <mxPoint x="190" y="290" as="sourcePoint"/>
                        <mxPoint x="570.110909090909" y="290" as="targetPoint"/>
                        <Array as="points">
                            <mxPoint x="570" y="210"/>
                            <mxPoint x="310" y="210"/>
                        </Array>
                    </mxGeometry>
                </mxCell>
                <mxCell id="62" value="" style="endArrow=classic;html=1;fontColor=#000000;strokeColor=#999999;strokeWidth=1;edgeStyle=orthogonalEdgeStyle;" parent="2" source="37" target="8" edge="1">
                    <mxGeometry width="50" height="50" relative="1" as="geometry">
                        <mxPoint x="586.3000000000002" y="270" as="sourcePoint"/>
                        <mxPoint x="320" y="179" as="targetPoint"/>
                        <Array as="points">
                            <mxPoint x="570" y="360"/>
                            <mxPoint x="310" y="360"/>
                        </Array>
                    </mxGeometry>
                </mxCell>
                <mxCell id="63" value="" style="endArrow=classic;html=1;fontColor=#000000;strokeColor=#999999;strokeWidth=1;edgeStyle=orthogonalEdgeStyle;" parent="2" source="15" target="10" edge="1">
                    <mxGeometry width="50" height="50" relative="1" as="geometry">
                        <mxPoint x="190" y="290" as="sourcePoint"/>
                        <mxPoint x="570.110909090909" y="290" as="targetPoint"/>
                        <Array as="points"/>
                    </mxGeometry>
                </mxCell>
                <mxCell id="64" value="" style="endArrow=classic;html=1;fontColor=#000000;strokeColor=#999999;strokeWidth=1;edgeStyle=orthogonalEdgeStyle;" parent="2" source="5" target="15" edge="1">
                    <mxGeometry width="50" height="50" relative="1" as="geometry">
                        <mxPoint x="580" y="270" as="sourcePoint"/>
                        <mxPoint x="320" y="179" as="targetPoint"/>
                        <Array as="points">
                            <mxPoint x="180" y="150"/>
                            <mxPoint x="180" y="210"/>
                            <mxPoint x="10" y="210"/>
                        </Array>
                    </mxGeometry>
                </mxCell>
                <mxCell id="65" value="" style="endArrow=classic;html=1;fontColor=#000000;strokeColor=#999999;strokeWidth=1;edgeStyle=orthogonalEdgeStyle;" parent="2" source="8" target="15" edge="1">
                    <mxGeometry width="50" height="50" relative="1" as="geometry">
                        <mxPoint x="300" y="159.5" as="sourcePoint"/>
                        <mxPoint x="20" y="270.0004554771124" as="targetPoint"/>
                        <Array as="points">
                            <mxPoint x="190" y="430"/>
                            <mxPoint x="190" y="400"/>
                            <mxPoint x="10" y="400"/>
                        </Array>
                    </mxGeometry>
                </mxCell>
                <mxCell id="67" value="" style="sketch=0;points=[[0,0,0],[0.25,0,0],[0.5,0,0],[0.75,0,0],[1,0,0],[0,1,0],[0.25,1,0],[0.5,1,0],[0.75,1,0],[1,1,0],[0,0.25,0],[0,0.5,0],[0,0.75,0],[1,0.25,0],[1,0.5,0],[1,0.75,0]];outlineConnect=0;fontColor=#232F3E;gradientColor=#945DF2;gradientDirection=north;fillColor=#5A30B5;strokeColor=#ffffff;dashed=0;verticalLabelPosition=bottom;verticalAlign=top;align=center;html=1;fontSize=12;fontStyle=0;aspect=fixed;shape=mxgraph.aws4.resourceIcon;resIcon=mxgraph.aws4.cloudfront;shadow=0;strokeWidth=2;" parent="1" vertex="1">
                    <mxGeometry x="119" y="460" width="40" height="40" as="geometry"/>
                </mxCell>
                <mxCell id="68" value="&lt;font color=&quot;#000000&quot;&gt;Amazon CloudFront&lt;/font&gt;" style="text;html=1;align=center;verticalAlign=middle;resizable=0;points=[];autosize=1;strokeColor=none;fillColor=none;" parent="1" vertex="1">
                    <mxGeometry x="74" y="500" width="130" height="30" as="geometry"/>
                </mxCell>
                <mxCell id="69" value="" style="endArrow=classic;html=1;fontColor=#000000;strokeColor=#999999;strokeWidth=1;edgeStyle=orthogonalEdgeStyle;" parent="1" source="67" edge="1">
                    <mxGeometry width="50" height="50" relative="1" as="geometry">
                        <mxPoint x="310" y="490" as="sourcePoint"/>
                        <mxPoint x="260" y="480" as="targetPoint"/>
                        <Array as="points"/>
                    </mxGeometry>
                </mxCell>
                <mxCell id="70" value="" style="sketch=0;points=[[0,0,0],[0.25,0,0],[0.5,0,0],[0.75,0,0],[1,0,0],[0,1,0],[0.25,1,0],[0.5,1,0],[0.75,1,0],[1,1,0],[0,0.25,0],[0,0.5,0],[0,0.75,0],[1,0.25,0],[1,0.5,0],[1,0.75,0]];outlineConnect=0;fontColor=#232F3E;gradientColor=#F54749;gradientDirection=north;fillColor=#C7131F;strokeColor=#ffffff;dashed=0;verticalLabelPosition=bottom;verticalAlign=top;align=center;html=1;fontSize=12;fontStyle=0;aspect=fixed;shape=mxgraph.aws4.resourceIcon;resIcon=mxgraph.aws4.waf;shadow=0;strokeWidth=2;" parent="1" vertex="1">
                    <mxGeometry x="119" y="340" width="39" height="39" as="geometry"/>
                </mxCell>
                <mxCell id="71" value="&lt;font color=&quot;#000000&quot;&gt;AWS WAF&lt;/font&gt;" style="text;html=1;align=center;verticalAlign=middle;resizable=0;points=[];autosize=1;strokeColor=none;fillColor=none;" parent="1" vertex="1">
                    <mxGeometry x="99" y="310" width="80" height="30" as="geometry"/>
                </mxCell>
                <mxCell id="73" value="" style="endArrow=classic;html=1;fontColor=#000000;strokeColor=#999999;strokeWidth=1;edgeStyle=orthogonalEdgeStyle;exitX=0.5;exitY=1;exitDx=0;exitDy=0;exitPerimeter=0;entryX=0.5;entryY=0;entryDx=0;entryDy=0;entryPerimeter=0;" parent="1" source="70" target="67" edge="1">
                    <mxGeometry width="50" height="50" relative="1" as="geometry">
                        <mxPoint x="169" y="490" as="sourcePoint"/>
                        <mxPoint x="270" y="490" as="targetPoint"/>
                        <Array as="points"/>
                    </mxGeometry>
                </mxCell>
                <mxCell id="77" value="" style="dashed=0;html=1;shape=mxgraph.aws3.cloud;fillColor=#F58536;gradientColor=none;dashed=0;" vertex="1" parent="1">
                    <mxGeometry x="100" y="140" width="52" height="36" as="geometry"/>
                </mxCell>
                <mxCell id="76" value="" style="rounded=1;arcSize=10;dashed=0;fillColor=none;gradientColor=none;strokeWidth=2;" vertex="1" parent="1">
                    <mxGeometry x="80" y="160" width="1320" height="640" as="geometry"/>
                </mxCell>
            </root>
        </mxGraphModel>
    </diagram>
</mxfile>
